#!OML:ASF I:\golf\golf\golf 2\Subject 1\2002-09-07\Subject1.ASF
:FULLY-SPECIFIED
:DEGREES
392
root 1.36572 17.869 -3.70395 10.3481 8.59827 -3.28902
lowerback 6.25383 0.731899 -0.371785
upperback 1.82037 1.09646 6.21426
thorax -1.7569 0.555564 6.60429
lowerneck -21.9371 -7.61002 -4.39662
upperneck 6.80627 -9.3447 3.39145
head 5.89648 -4.38932 0.721131
rclavicle -1.15295e-014 -3.18055e-015
rhumerus -22.8229 -4.54945 -71.472
rradius 33.5002
rwrist -14.2253
rhand -22.5868 13.9141
rfingers 7.12502
rthumb 3.8421 -16.031
lclavicle -1.15295e-014 -3.18055e-015
lhumerus -27.8184 -1.73131 88.8096
lradius 36.6803
lwrist 5.28203
lhand -8.62174 31.9194
lfingers 7.12502
lthumb 17.3105 61.1684
rfemur -30.805 -4.91849 24.7877
rtibia 36.4737
rfoot -11.8441 7.21061
rtoes 13.2979
lfemur -14.0287 0.32582 -14.4361
ltibia 29.7472
lfoot -20.2947 -5.77974
ltoes -5.82979
393
root 1.39009 17.8601 -3.717 10.0153 8.57029 -3.25908
lowerback 5.99957 0.59794 -0.562325
upperback 1.75161 0.901183 6.20609
thorax -1.66564 0.457471 6.7221
lowerneck -22.0827 -7.4414 -4.31407
upperneck 7.19501 -9.11536 3.14616
head 6.02021 -4.29073 0.646573
rclavicle 1.82882e-014 1.59028e-014
rhumerus -22.9854 -4.81722 -71.4791
rradius 33.653
rwrist -14.1762
rhand -22.325 14.1096
rfingers 7.12502
rthumb 4.09495 -15.8308
lclavicle 1.82882e-014 1.59028e-014
lhumerus -27.7032 -1.54408 88.7241
lradius 36.5407
lwrist 5.11566
lhand -8.64413 31.7244
lfingers 7.12502
lthumb 17.289 60.9753
rfemur -30.5863 -5.0705 24.6573
rtibia 36.7091
rfoot -11.9647 7.27914
rtoes 13.5371
lfemur -13.5547 0.443049 -14.6451
ltibia 29.5075
lfoot -20.4058 -5.44233
ltoes -5.6472
394
root 1.41331 17.854 -3.73253 9.74839 8.61973 -3.22851
lowerback 5.72652 0.476454 -0.767011
upperback 1.62008 0.725466 6.20471
thorax -1.63026 0.371295 6.85292
lowerneck -22.0974 -7.30922 -4.22269
upperneck 7.54353 -8.93854 2.88189
head 6.11239 -4.22177 0.562979
rclavicle 5.56597e-015 -1.11319e-014
rhumerus -23.1588 -5.18721 -71.4275
rradius 33.6779
rwrist -14.0444
rhand -22.1664 14.1676
rfingers 7.12502
rthumb 4.24806 -15.7698
lclavicle 5.56597e-015 -1.11319e-014
lhumerus -27.6235 -1.58719 88.7231
lradius 36.3843
lwrist 5.05155
lhand -8.88803 31.9194
lfingers 7.12502
lthumb 17.0542 61.1908
rfemur -30.4444 -5.35511 24.5614
rtibia 36.9081
rfoot -12.0054 7.44796
rtoes 13.8497
lfemur -13.1682 0.577737 -14.8156
ltibia 29.2782
lfoot -20.5825 -5.29695
ltoes -5.54357
395
root 1.43711 17.8482 -3.74751 9.51175 8.66683 -3.15379
lowerback 5.46231 0.4048 -0.917286
upperback 1.41142 0.621174 6.07904
thorax -1.68573 0.323787 6.81289
lowerneck -21.9221 -7.20734 -3.97353
upperneck 7.86381 -8.85611 2.63351
head 6.1641 -4.19502 0.455224
rclavicle -2.14687e-014 -2.38542e-014
rhumerus -23.5316 -5.65268 -71.4997
rradius 33.6755
rwrist -14.0091
rhand -22.3774 14.1183
rfingers 7.12502
rthumb 4.04437 -15.823
lclavicle -2.14687e-014 -2.38542e-014
lhumerus -27.7492 -2.0314 88.6442
lradius 36.4557
lwrist 5.16035
lhand -9.07445 32.929
lfingers 7.12502
lthumb 16.8748 62.2158
rfemur -30.2979 -5.59331 24.3938
rtibia 37.0535
rfoot -12.0334 7.58977
rtoes 13.9744
lfemur -12.8516 0.657596 -15.0338
ltibia 29.0973
lfoot -20.7434 -5.07141
ltoes -6.12788
396
root 1.45997 17.8417 -3.76108 9.23895 8.702 -3.24254
lowerback 5.2167 0.347516 -0.890873
upperback 1.22608 0.545887 5.96911
thorax -1.7295 0.28966 6.68505
lowerneck -21.7844 -7.11533 -3.73083
upperneck 8.2249 -8.79173 2.44637
head 6.23908 -4.1708 0.363623
rclavicle 4.25399e-014 -7.95139e-015
rhumerus -23.8777 -6.14903 -71.6043
rradius 33.6382
rwrist -14.0137
rhand -22.5877 14.0712
rfingers 7.12502
rthumb 3.84126 -15.874
lclavicle 4.25399e-014 -7.95139e-015
lhumerus -27.9085 -2.53128 88.5282
lradius 36.6517
lwrist 5.31879
lhand -9.02362 32.384
lfingers 7.12502
lthumb 16.9237 61.6667
rfemur -30.1034 -5.71613 24.3882
rtibia 37.1595
rfoot -12.0933 7.62769
rtoes 13.7
lfemur -12.5561 0.671763 -15.05
ltibia 28.9527
lfoot -20.8089 -4.98168
ltoes -5.4939
397
root 1.47952 17.8367 -3.77511 8.88571 8.75037 -3.44423
lowerback 4.98529 0.266051 -0.883306
upperback 1.14473 0.435846 5.9896
thorax -1.67066 0.23472 6.70964
lowerneck -21.804 -7.00495 -3.57648
upperneck 8.59556 -8.66212 2.20305
head 6.341 -4.12104 0.270322
rclavicle 1.23246e-014 6.36111e-015
rhumerus -24.0732 -6.57921 -71.6188
rradius 33.5993
rwrist -13.9092
rhand -22.6855 14.2231
rfingers 7.12502
rthumb 3.74686 -15.7237
lclavicle 1.23246e-014 6.36111e-015
lhumerus -27.8845 -2.80112 88.4872
lradius 36.7431
lwrist 5.48044
lhand -9.0046 32.2405
lfingers 7.12502
lthumb 16.942 61.5216
rfemur -29.8228 -5.7772 24.5073
rtibia 37.249
rfoot -12.1485 7.62295
rtoes 13.5301
lfemur -12.1825 0.512089 -14.8945
ltibia 28.85
lfoot -20.8409 -5.04948
ltoes -3.90291
